<svg width="80" height="21" viewBox="0 0 80 21" fill="none" xmlns="http://www.w3.org/2000/svg">
<path d="M12.716 17.376C12.5947 17.3413 12.404 17.2287 12.144 17.038C11.884 16.8473 11.65 16.5613 11.442 16.18C11.2513 15.7987 11.1647 15.3047 11.182 14.698C11.1993 14.178 11.234 13.814 11.286 13.606C11.3553 13.3807 11.3293 13.2593 11.208 13.242C11.1213 13.2247 10.948 13.3027 10.688 13.476C10.428 13.6493 10.09 13.9267 9.674 14.308C9.258 14.6893 8.75533 15.192 8.166 15.816C7.958 15.9893 7.724 16.206 7.464 16.466C7.22133 16.7087 6.97 16.8907 6.71 17.012C6.46733 17.1333 6.25067 17.1073 6.06 16.934L5.8 16.7C5.67867 16.596 5.57467 16.4573 5.488 16.284C5.40133 16.1107 5.37533 15.9633 5.41 15.842L6.138 13.814C6.346 13.3633 6.48467 13.034 6.554 12.826C6.64067 12.618 6.67533 12.488 6.658 12.436C6.658 12.384 6.61467 12.3667 6.528 12.384C6.424 12.4013 6.27667 12.4967 6.086 12.67C5.89533 12.826 5.76533 12.956 5.696 13.06C5.62667 13.06 5.53133 13.1293 5.41 13.268C5.306 13.4067 5.202 13.528 5.098 13.632C4.994 13.736 4.812 13.9353 4.552 14.23C4.292 14.5073 4.01467 14.802 3.72 15.114C3.49467 15.322 3.23467 15.5993 2.94 15.946C2.64533 16.2927 2.38533 16.6047 2.16 16.882C1.93467 17.1593 1.796 17.298 1.744 17.298C1.432 17.2807 1.146 17.1767 0.886 16.986C0.643333 16.7953 0.478667 16.5613 0.392 16.284C0.288 16.0933 0.279333 15.7467 0.366 15.244C0.452667 14.724 0.617333 13.9007 0.86 12.774C0.929334 12.514 0.99 12.2887 1.042 12.098C1.11133 11.9073 1.18067 11.7167 1.25 11.526C1.31933 11.3353 1.39733 11.1187 1.484 10.876C1.588 10.6333 1.718 10.3387 1.874 9.992C1.96067 9.74933 1.99533 9.524 1.978 9.316C1.96067 9.09067 1.94333 8.90867 1.926 8.77C1.926 8.51 2.004 8.302 2.16 8.146C2.33333 7.99 2.524 7.886 2.732 7.834C2.94 7.76467 3.10467 7.74733 3.226 7.782C3.71133 7.834 4.04067 8.00733 4.214 8.302C4.38733 8.59667 4.48267 8.88267 4.5 9.16C4.51733 9.42 4.48267 9.654 4.396 9.862C4.30933 10.07 4.24 10.2433 4.188 10.382L3.902 11.084C3.72867 11.4827 3.59867 11.7773 3.512 11.968C3.44267 12.1413 3.39933 12.2627 3.382 12.332C3.382 12.384 3.382 12.436 3.382 12.488C3.39933 12.54 3.47733 12.514 3.616 12.41C3.75467 12.306 3.91933 12.1673 4.11 11.994C4.318 11.8033 4.50867 11.6387 4.682 11.5C4.994 11.24 5.32333 10.98 5.67 10.72C6.034 10.4427 6.38933 10.2 6.736 9.992C7.08267 9.784 7.36867 9.64533 7.594 9.576C7.88867 9.628 8.15733 9.77533 8.4 10.018C8.66 10.2607 8.82467 10.4687 8.894 10.642C8.98067 10.902 8.98933 11.136 8.92 11.344C8.868 11.552 8.82467 11.7427 8.79 11.916C8.77267 11.9853 8.738 12.1153 8.686 12.306C8.634 12.4967 8.582 12.6787 8.53 12.852C8.478 13.008 8.452 13.086 8.452 13.086C8.452 13.086 8.504 13.034 8.608 12.93C8.712 12.826 8.85067 12.7047 9.024 12.566C9.19733 12.41 9.37067 12.2713 9.544 12.15C10.4107 11.4913 11.0953 11.0753 11.598 10.902C12.118 10.7113 12.56 10.8587 12.924 11.344C13.132 11.5347 13.262 11.7947 13.314 12.124C13.3833 12.4533 13.418 12.8953 13.418 13.45C13.4353 13.6753 13.4527 13.9267 13.47 14.204C13.5047 14.4813 13.5393 14.724 13.574 14.932C13.626 15.14 13.6693 15.27 13.704 15.322C13.756 15.3913 13.8513 15.4607 13.99 15.53C14.1287 15.582 14.2587 15.6253 14.38 15.66C14.6227 15.7813 14.7527 16.0067 14.77 16.336C14.8047 16.648 14.6833 16.8907 14.406 17.064C14.146 17.22 13.8687 17.3153 13.574 17.35C13.2967 17.3847 13.0107 17.3933 12.716 17.376ZM15.4807 17.558C15.3421 17.4193 15.2381 17.2113 15.1687 16.934C15.1167 16.6567 15.0994 16.388 15.1167 16.128C15.1341 15.8507 15.1774 15.6427 15.2467 15.504C15.2467 15.3653 15.2641 15.2613 15.2987 15.192C15.3507 15.1053 15.3681 15.0273 15.3507 14.958C15.3334 14.8887 15.3507 14.7673 15.4027 14.594C15.4547 14.4207 15.5067 14.256 15.5587 14.1C15.6801 13.8227 15.8187 13.4673 15.9747 13.034C16.1307 12.5833 16.2867 12.1327 16.4427 11.682C16.5987 11.214 16.7287 10.8153 16.8327 10.486C16.9367 10.1393 16.9974 9.93133 17.0147 9.862C17.0147 9.654 17.1534 9.54133 17.4307 9.524C17.6387 9.45467 17.8901 9.54133 18.1847 9.784C18.4794 10.0267 18.7134 10.2867 18.8867 10.564C19.0254 10.7027 19.0774 10.8847 19.0427 11.11C19.0081 11.3353 18.8954 11.656 18.7047 12.072C18.6354 12.2107 18.5487 12.4447 18.4447 12.774C18.3581 13.086 18.2974 13.346 18.2627 13.554C18.1934 13.6927 18.1067 13.892 18.0027 14.152C17.9161 14.3947 17.8381 14.6287 17.7687 14.854C17.7341 14.9407 17.6994 15.1053 17.6647 15.348C17.6301 15.5733 17.5867 15.8073 17.5347 16.05C17.4827 16.2927 17.4134 16.4833 17.3267 16.622C17.1707 17.3327 16.8934 17.7487 16.4947 17.87C16.1134 17.9913 15.7754 17.8873 15.4807 17.558ZM18.2887 7.132C18.0981 6.99333 17.9507 6.82867 17.8467 6.638C17.7601 6.43 17.7081 6.248 17.6907 6.092C17.6907 5.936 17.7081 5.84067 17.7427 5.806C17.9161 5.61533 18.0634 5.364 18.1847 5.052C18.3234 4.74 18.4707 4.454 18.6267 4.194C18.6614 4.142 18.7047 4.07267 18.7567 3.986C18.8261 3.882 18.8954 3.82133 18.9647 3.804C19.1727 3.66533 19.4587 3.674 19.8227 3.83C20.2041 3.986 20.4814 4.20267 20.6547 4.48C20.8107 4.80933 20.8541 5.14733 20.7847 5.494C20.7327 5.84067 20.5507 6.20467 20.2387 6.586C19.9787 6.93267 19.6494 7.158 19.2507 7.262C18.8521 7.34867 18.5314 7.30533 18.2887 7.132ZM28.8003 17.896C28.5403 17.896 28.2889 17.818 28.0463 17.662C27.8036 17.4887 27.6043 17.2547 27.4483 16.96C27.2923 16.648 27.2143 16.284 27.2143 15.868C27.2143 15.608 27.2576 15.244 27.3443 14.776C27.4483 14.2907 27.5956 13.684 27.7863 12.956C27.8209 12.7133 27.8469 12.5573 27.8643 12.488C27.8989 12.4187 27.9163 12.3493 27.9163 12.28C27.9163 12.2453 27.9076 12.2193 27.8903 12.202C27.8903 12.1673 27.8729 12.15 27.8383 12.15C27.6996 12.15 27.5089 12.2453 27.2663 12.436C27.0409 12.6093 26.7809 12.8173 26.4863 13.06C26.4343 13.0947 26.3736 13.138 26.3043 13.19C26.2523 13.242 26.1916 13.294 26.1223 13.346C26.0703 13.398 26.0096 13.45 25.9403 13.502C25.7669 13.606 25.4983 13.8053 25.1343 14.1C24.7876 14.3947 24.4236 14.7067 24.0423 15.036C23.6783 15.3653 23.3576 15.6427 23.0803 15.868C22.9416 15.972 22.8203 16.0587 22.7163 16.128C22.6296 16.1973 22.5689 16.232 22.5343 16.232C22.4996 16.232 22.3609 16.1887 22.1183 16.102C21.8929 15.998 21.6676 15.8593 21.4423 15.686C21.2343 15.4953 21.1303 15.2787 21.1303 15.036C21.1303 14.88 21.1909 14.568 21.3123 14.1C21.4509 13.632 21.6416 13.0773 21.8843 12.436C22.1269 11.7947 22.4043 11.1447 22.7163 10.486C22.7856 10.33 22.8376 10.122 22.8723 9.862C22.9069 9.602 22.9416 9.35067 22.9763 9.108C23.0283 8.848 23.1149 8.65733 23.2363 8.536C23.2883 8.44933 23.3489 8.38867 23.4183 8.354C23.5049 8.302 23.5916 8.276 23.6783 8.276C23.8516 8.276 24.0163 8.31933 24.1723 8.406C24.3283 8.47533 24.4756 8.59667 24.6143 8.77C24.8743 9.04733 25.0129 9.37667 25.0303 9.758C25.0649 10.122 25.0389 10.4773 24.9523 10.824C24.8656 11.1707 24.7703 11.4567 24.6663 11.682C24.5623 11.89 24.5103 11.9767 24.5103 11.942C24.5796 11.9073 24.6749 11.8207 24.7963 11.682C24.9349 11.5433 25.1689 11.3787 25.4983 11.188C25.9489 10.8413 26.2956 10.5987 26.5383 10.46C26.7809 10.304 26.9629 10.1913 27.0843 10.122C27.2229 10.0527 27.3443 9.97467 27.4483 9.888C27.5349 9.81867 27.5956 9.77533 27.6303 9.758C27.6823 9.74067 27.7083 9.732 27.7083 9.732C27.7603 9.732 27.8469 9.69733 27.9683 9.628C28.1069 9.55867 28.2369 9.524 28.3583 9.524C28.5316 9.524 28.7136 9.56733 28.9043 9.654C29.0949 9.72333 29.2596 9.82733 29.3983 9.966C29.5369 10.0873 29.6063 10.2173 29.6063 10.356C29.6063 10.408 29.6236 10.4513 29.6583 10.486C29.6929 10.5207 29.7276 10.564 29.7623 10.616C29.8489 10.72 29.9443 10.8673 30.0483 11.058C30.1696 11.2313 30.2303 11.5173 30.2303 11.916C30.2303 12.1933 30.1696 12.6007 30.0483 13.138C29.9269 13.6753 29.7969 14.204 29.6583 14.724C29.5196 15.2613 29.4503 15.6947 29.4503 16.024C29.4676 16.336 29.5023 16.5787 29.5543 16.752C29.6063 16.908 29.6323 17.038 29.6323 17.142C29.6323 17.2807 29.5629 17.4453 29.4243 17.636C29.2856 17.8093 29.0776 17.896 28.8003 17.896ZM34.2858 17.974C33.8698 17.974 33.5058 17.7573 33.1938 17.324C32.8992 16.8733 32.7172 16.336 32.6478 15.712C32.6652 15.5733 32.6825 15.374 32.6998 15.114C32.7345 14.854 32.7692 14.5853 32.8038 14.308C32.8732 13.9787 32.9685 13.554 33.0898 13.034C33.2112 12.514 33.3412 11.994 33.4798 11.474C33.6185 10.9367 33.7398 10.4773 33.8438 10.096C33.9478 9.69733 34.0085 9.46333 34.0258 9.394C34.1298 9.15133 34.3638 9.09067 34.7278 9.212C35.0918 9.33333 35.4038 9.59333 35.6638 9.992C35.7678 10.1307 35.8285 10.2953 35.8458 10.486C35.8805 10.6767 35.8545 10.954 35.7678 11.318C35.6985 11.682 35.5598 12.2193 35.3518 12.93C35.1612 13.6233 35.0138 14.1867 34.9098 14.62C34.8232 15.036 34.7885 15.478 34.8058 15.946C34.7365 16.7433 34.6672 17.2893 34.5978 17.584C34.5285 17.8613 34.4245 17.9913 34.2858 17.974ZM36.6778 7.184C36.6085 7.236 36.5392 7.262 36.4698 7.262C36.4178 7.24467 36.3225 7.19267 36.1838 7.106C36.0625 7.08867 35.9065 7.01067 35.7158 6.872C35.5425 6.716 35.3865 6.56 35.2478 6.404C35.1265 6.248 35.0658 6.15267 35.0658 6.118C35.0485 5.94467 35.0572 5.66733 35.0918 5.286C35.1438 4.90467 35.2392 4.54933 35.3778 4.22C35.5338 3.87333 35.7418 3.69133 36.0018 3.674C36.0712 3.674 36.2185 3.70867 36.4438 3.778C36.6865 3.84733 36.9378 3.934 37.1978 4.038C37.3365 4.298 37.4665 4.636 37.5878 5.052C37.7092 5.468 37.7178 5.87533 37.6138 6.274C37.5272 6.65533 37.2152 6.95867 36.6778 7.184ZM41.3914 17.766C41.166 17.87 40.906 17.9133 40.6114 17.896C40.3167 17.8787 39.918 17.7833 39.4154 17.61C39.3807 17.61 39.2594 17.532 39.0514 17.376C38.8434 17.22 38.6354 17.038 38.4274 16.83C38.2194 16.622 38.0807 16.4487 38.0114 16.31C37.734 15.9113 37.6474 15.322 37.7514 14.542C37.8727 13.762 38.15 12.826 38.5834 11.734C38.7047 11.474 38.8867 11.1447 39.1294 10.746C39.3894 10.3473 39.6407 9.98333 39.8834 9.654C40.1434 9.30733 40.3254 9.108 40.4294 9.056C40.4294 9.056 40.5247 9.02133 40.7154 8.952C40.906 8.88267 41.1487 8.77 41.4434 8.614C41.53 8.57933 41.6774 8.536 41.8854 8.484C42.1107 8.432 42.336 8.38867 42.5614 8.354C42.804 8.302 42.9687 8.28467 43.0554 8.302C43.402 8.31933 43.7574 8.44933 44.1214 8.692C44.5027 8.91733 44.8147 9.186 45.0574 9.498C45.3 9.79267 45.378 10.0527 45.2914 10.278C45.2914 10.3127 45.2394 10.4253 45.1354 10.616C45.0487 10.7893 44.9534 10.9713 44.8494 11.162C44.7454 11.3353 44.6587 11.4653 44.5894 11.552C44.5027 11.656 44.3467 11.6993 44.1214 11.682C43.9134 11.6647 43.7227 11.5953 43.5494 11.474C43.376 11.3527 43.2807 11.188 43.2634 10.98C43.2287 10.8413 43.0987 10.7113 42.8734 10.59C42.6654 10.4687 42.5614 10.408 42.5614 10.408C42.4227 10.408 42.2407 10.5467 42.0154 10.824C41.79 11.1013 41.556 11.4133 41.3134 11.76C41.0014 12.072 40.776 12.41 40.6374 12.774C40.516 13.1207 40.4294 13.45 40.3774 13.762C40.3427 14.0567 40.2994 14.282 40.2474 14.438C40.178 14.6113 40.178 14.828 40.2474 15.088C40.3167 15.348 40.4034 15.4953 40.5074 15.53C40.6634 15.5473 40.8714 15.5387 41.1314 15.504C41.4087 15.452 41.6947 15.3913 41.9894 15.322C42.3014 15.2353 42.6134 15.1487 42.9254 15.062C43.2374 14.958 43.5147 14.854 43.7574 14.75C44.0867 14.542 44.3727 14.464 44.6154 14.516C44.858 14.5507 45.04 14.5853 45.1614 14.62C45.352 14.6893 45.4474 14.8367 45.4474 15.062C45.4474 15.2873 45.3694 15.53 45.2134 15.79C45.0574 16.0327 44.832 16.232 44.5374 16.388C44.26 16.5267 44.0087 16.6827 43.7834 16.856C43.5754 17.012 43.4714 17.1333 43.4714 17.22C43.402 17.22 43.324 17.246 43.2374 17.298C43.168 17.3327 43.1074 17.3413 43.0554 17.324C43.0207 17.324 42.882 17.35 42.6394 17.402C42.3967 17.454 42.1454 17.5147 41.8854 17.584C41.6427 17.6533 41.478 17.714 41.3914 17.766ZM50.0191 18.234C49.7938 18.2513 49.6118 18.2253 49.4731 18.156C49.3344 18.104 49.1611 18.0173 48.9531 17.896C48.5718 17.6013 48.2511 17.2373 47.9911 16.804C47.7484 16.3707 47.6358 16.0067 47.6531 15.712C47.6878 15.556 47.6878 15.4173 47.6531 15.296C47.6358 15.1747 47.6271 15.114 47.6271 15.114C47.5231 15.0273 47.4884 14.9753 47.5231 14.958C47.5578 14.9233 47.5838 14.8713 47.6011 14.802C47.7398 14.7673 47.7571 14.672 47.6531 14.516C47.6011 14.3773 47.6271 14.0653 47.7311 13.58C47.8524 13.0773 48.0084 12.6093 48.1991 12.176C48.2858 11.9853 48.4071 11.734 48.5631 11.422C48.7364 11.11 48.9271 10.798 49.1351 10.486C49.3431 10.1567 49.5338 9.89667 49.7071 9.706C50.0884 9.27267 50.4264 8.91733 50.7211 8.64C51.0331 8.36267 51.3798 8.15467 51.7611 8.016C52.1078 7.87733 52.4544 7.81667 52.8011 7.834C53.1651 7.85133 53.4858 7.97267 53.7631 8.198C54.1791 8.31933 54.5518 8.51 54.8811 8.77C55.2104 9.01267 55.4358 9.35933 55.5571 9.81C55.6958 10.3127 55.7391 10.9107 55.6871 11.604C55.6524 12.28 55.3578 13.1553 54.8031 14.23C54.4738 14.906 54.1444 15.452 53.8151 15.868C53.5031 16.284 53.1218 16.6827 52.6711 17.064C52.3418 17.3413 51.9171 17.584 51.3971 17.792C50.8771 18 50.4178 18.1473 50.0191 18.234ZM52.2811 14.308C52.5064 13.996 52.6798 13.6927 52.8011 13.398C52.9398 13.1033 53.0698 12.696 53.1911 12.176C53.2431 11.9853 53.2691 11.7513 53.2691 11.474C53.2864 11.1967 53.2778 10.9453 53.2431 10.72C53.2258 10.4773 53.1651 10.3473 53.0611 10.33C52.8358 10.2433 52.6018 10.2433 52.3591 10.33C52.1338 10.3993 51.8651 10.6073 51.5531 10.954C51.2758 11.266 51.0504 11.5607 50.8771 11.838C50.7211 12.098 50.5738 12.4187 50.4351 12.8C50.3138 13.164 50.1751 13.6407 50.0191 14.23C49.8804 14.802 49.8718 15.2613 49.9931 15.608C50.1318 15.9547 50.3918 16.05 50.7731 15.894C51.1544 15.738 51.6571 15.2093 52.2811 14.308ZM65.809 17.376C65.4277 17.3413 65.107 17.2633 64.847 17.142C64.6043 17.0033 64.405 16.7347 64.249 16.336C64.1797 16.0587 64.145 15.7727 64.145 15.478C64.1623 15.166 64.1883 14.8713 64.223 14.594C64.2577 14.2993 64.275 14.048 64.275 13.84C64.275 13.8053 64.275 13.736 64.275 13.632C64.275 13.528 64.275 13.4327 64.275 13.346C64.2403 13.086 64.171 12.93 64.067 12.878C63.9803 12.8087 63.8243 12.8173 63.599 12.904C63.235 13.0773 62.8363 13.3113 62.403 13.606C61.987 13.8833 61.545 14.2127 61.077 14.594C60.6263 14.958 60.1583 15.348 59.673 15.764C59.2917 16.18 59.0057 16.518 58.815 16.778C58.6417 17.038 58.4597 17.168 58.269 17.168C58.1303 17.2373 57.983 17.22 57.827 17.116C57.671 17.012 57.5063 16.8907 57.333 16.752C57.2117 16.6133 57.0643 16.44 56.891 16.232C56.735 16.0067 56.6397 15.8593 56.605 15.79C56.605 15.5127 56.6223 15.2613 56.657 15.036C56.709 14.8107 56.7783 14.5767 56.865 14.334C56.969 14.0913 57.0903 13.814 57.229 13.502C57.2983 13.3807 57.359 13.2593 57.411 13.138C57.4803 12.9993 57.5583 12.852 57.645 12.696C57.7143 12.4533 57.8097 12.176 57.931 11.864C58.0697 11.552 58.1997 11.2573 58.321 10.98C58.5117 10.5293 58.659 10.1393 58.763 9.81C58.867 9.48067 58.9537 9.12533 59.023 8.744C59.0057 8.70933 59.0143 8.65733 59.049 8.588C59.0837 8.51867 59.1357 8.47533 59.205 8.458H59.231H59.257C59.3783 8.37133 59.6037 8.36267 59.933 8.432C60.2797 8.484 60.5397 8.57933 60.713 8.718C61.077 9.03 61.2503 9.43733 61.233 9.94C61.2157 10.4427 60.9557 11.1013 60.453 11.916C60.3317 12.1933 60.2017 12.4533 60.063 12.696C59.9417 12.9213 59.881 13.0773 59.881 13.164C59.881 13.164 59.9503 13.112 60.089 13.008C60.2277 12.904 60.3923 12.7827 60.583 12.644C60.7737 12.488 60.9383 12.3667 61.077 12.28C61.1637 12.1933 61.3543 12.0373 61.649 11.812C61.9437 11.5693 62.2643 11.318 62.611 11.058C62.9577 10.798 63.235 10.5987 63.443 10.46C63.6337 10.3213 63.8763 10.1827 64.171 10.044C64.4657 9.888 64.6477 9.81 64.717 9.81C64.8903 9.81 65.0983 9.87067 65.341 9.992C65.601 10.1133 65.835 10.2607 66.043 10.434C66.2683 10.59 66.3983 10.7373 66.433 10.876C66.433 10.9453 66.4243 11.0407 66.407 11.162C66.3897 11.266 66.381 11.3613 66.381 11.448C66.3637 11.7253 66.355 12.0633 66.355 12.462C66.3723 12.8433 66.381 13.2333 66.381 13.632C66.381 14.0133 66.3463 14.36 66.277 14.672C66.277 14.672 66.2857 14.6893 66.303 14.724C66.3203 14.7413 66.3377 14.776 66.355 14.828C66.3377 14.8453 66.329 14.88 66.329 14.932C66.3463 14.9667 66.355 14.984 66.355 14.984C66.3897 15.1053 66.4243 15.2267 66.459 15.348C66.511 15.4693 66.5717 15.608 66.641 15.764C66.7103 15.9027 66.7883 16.0847 66.875 16.31C66.8577 16.5353 66.7277 16.7607 66.485 16.986C66.2597 17.194 66.0343 17.324 65.809 17.376ZM70.0986 20.262C69.8733 20.2793 69.6479 20.1407 69.4226 19.846C69.1973 19.5513 69.0066 19.1613 68.8506 18.676C68.7119 18.1907 68.6426 17.662 68.6426 17.09C68.5733 16.3793 68.6339 15.5127 68.8246 14.49C69.0153 13.4673 69.3013 12.2713 69.6826 10.902C69.8213 10.434 70.0206 9.862 70.2806 9.186C70.5406 8.51 70.8093 7.84267 71.0866 7.184C71.3813 6.52533 71.6413 5.97067 71.8666 5.52C72.0919 5.052 72.2306 4.792 72.2826 4.74C72.3866 4.77467 72.4386 4.69667 72.4386 4.506C72.4386 4.47133 72.5079 4.34133 72.6466 4.116C72.7853 3.89067 72.9153 3.648 73.0366 3.388C73.2619 3.05867 73.5479 2.712 73.8946 2.348C74.2586 1.96667 74.6226 1.62 74.9866 1.308C75.3679 0.995999 75.6973 0.787999 75.9746 0.684C76.2346 0.579999 76.4946 0.527999 76.7546 0.527999C77.0839 0.527999 77.4393 0.640665 77.8206 0.865999C78.2193 1.074 78.5573 1.34267 78.8346 1.672C79.1293 1.984 79.2766 2.30467 79.2766 2.634C79.2766 2.91133 79.2159 3.18 79.0946 3.44C79.0426 3.7 78.9386 3.99467 78.7826 4.324C78.6266 4.636 78.4706 4.93067 78.3146 5.208C78.1759 5.468 78.0633 5.65867 77.9766 5.78C77.4739 6.16133 77.0839 6.30867 76.8066 6.222C76.5293 6.13533 76.4339 6.03133 76.5206 5.91C76.5206 5.84067 76.5466 5.69333 76.5986 5.468C76.6506 5.22533 76.6853 5.04333 76.7026 4.922C76.7026 4.88733 76.7373 4.78333 76.8066 4.61C76.8933 4.43667 76.9366 4.26333 76.9366 4.09C77.0926 3.466 77.1619 3.05867 77.1446 2.868C77.1446 2.67733 77.0666 2.582 76.9106 2.582C76.8239 2.56467 76.7199 2.582 76.5986 2.634C76.4773 2.686 76.3733 2.75533 76.2866 2.842C76.2173 2.91133 76.1826 2.98933 76.1826 3.076C76.1826 3.128 76.1826 3.16267 76.1826 3.18C76.1306 3.16267 75.9746 3.31 75.7146 3.622C75.4719 3.91667 75.1946 4.28067 74.8826 4.714C74.5706 5.13 74.3106 5.51133 74.1026 5.858C73.9639 6.15267 73.8079 6.49067 73.6346 6.872C73.4786 7.236 73.2533 7.79933 72.9586 8.562L72.7506 9.186L73.1666 9.238C73.3053 9.25533 73.4786 9.24667 73.6866 9.212C73.9119 9.16 74.1633 9.108 74.4406 9.056C75.0299 8.96933 75.4286 9.03 75.6366 9.238C75.8619 9.42867 76.0353 9.66267 76.1566 9.94C76.3473 10.356 76.2433 10.642 75.8446 10.798C75.4459 10.9367 74.5879 11.0407 73.2706 11.11C72.9933 11.0753 72.7506 11.0667 72.5426 11.084C72.3519 11.084 72.2219 11.1187 72.1526 11.188C72.0833 11.2227 71.9879 11.4133 71.8666 11.76C71.7453 12.0893 71.6153 12.488 71.4766 12.956C71.3553 13.4067 71.2599 13.84 71.1906 14.256C71.0519 14.7933 70.9653 15.374 70.9306 15.998C70.8959 16.6047 70.8959 17.1767 70.9306 17.714C70.9653 18.234 71.0173 18.6327 71.0866 18.91C71.1906 19.326 71.1039 19.6293 70.8266 19.82C70.5493 20.028 70.3066 20.1753 70.0986 20.262Z" fill="#636363"/>
</svg>
